<svg id="SvgjsSvg1017" xmlns="http://www.w3.org/2000/svg" version="1.1" xmlns:xlink="http://www.w3.org/1999/xlink" xmlns:svgjs="http://svgjs.com/svgjs" width="39" height="38" viewBox="0 0 39 38"><title>Ellipse</title><desc>Created with Avocode.</desc><defs id="SvgjsDefs1018"><clipPath id="SvgjsClipPath1021"><path id="SvgjsPath1020" d="M183.27 868C193.763 868 202.27 876.507 202.27 887C202.27 897.493 193.763 906 183.27 906C172.776 906 164.27 897.493 164.27 887C164.27 876.507 172.776 868 183.27 868Z " fill="#ffffff"></path></clipPath></defs><path id="SvgjsPath1019" d="M183.27 868C193.763 868 202.27 876.507 202.27 887C202.27 897.493 193.763 906 183.27 906C172.776 906 164.27 897.493 164.27 887C164.27 876.507 172.776 868 183.27 868Z " fill-opacity="0" fill="#ffffff" stroke-dasharray="0" stroke-linejoin="miter" stroke-linecap="butt" stroke-opacity="1" stroke="#ffffff" stroke-miterlimit="50" stroke-width="4" clip-path="url(&quot;#SvgjsClipPath1021&quot;)" transform="matrix(1,0,0,1,-164,-868)"></path><path id="SvgjsPath1022" d="M185.165 879.516C184.054 879.516 183.165 879.842 182.498 880.4939999999999C181.82999999999998 881.1469999999999 181.49599999999998 882.0649999999999 181.49599999999998 883.2489999999999V885.3309999999999H179.04099999999997V888.156H181.49599999999998V895.4029999999999H184.44299999999998V888.156H186.88899999999998L187.26399999999998 885.3309999999999H184.44299999999998V883.526C184.44299999999998 883.068 184.539 882.7239999999999 184.73199999999997 882.495C184.92399999999998 882.266 185.29599999999996 882.151 185.84899999999996 882.151H187.35999999999996V879.631C186.84099999999995 879.554 186.10899999999995 879.516 185.16499999999996 879.516Z " fill="#ffffff" fill-opacity="1" transform="matrix(1,0,0,1,-164,-868)"></path></svg>