<svg id="SvgjsSvg1023" xmlns="http://www.w3.org/2000/svg" version="1.1" xmlns:xlink="http://www.w3.org/1999/xlink" xmlns:svgjs="http://svgjs.com/svgjs" width="39" height="38" viewBox="0 0 39 38"><title>Ellipse</title><desc>Created with Avocode.</desc><defs id="SvgjsDefs1024"><clipPath id="SvgjsClipPath1027"><path id="SvgjsPath1026" d="M239.4 868C249.893 868 258.4 876.507 258.4 887C258.4 897.493 249.89299999999997 906 239.39999999999998 906C228.90699999999998 906 220.39999999999998 897.493 220.39999999999998 887C220.39999999999998 876.507 228.90699999999998 868 239.39999999999998 868Z " fill="#ffffff"></path></clipPath></defs><path id="SvgjsPath1025" d="M239.4 868C249.893 868 258.4 876.507 258.4 887C258.4 897.493 249.89299999999997 906 239.39999999999998 906C228.90699999999998 906 220.39999999999998 897.493 220.39999999999998 887C220.39999999999998 876.507 228.90699999999998 868 239.39999999999998 868Z " fill-opacity="0" fill="#ffffff" stroke-dasharray="0" stroke-linejoin="miter" stroke-linecap="butt" stroke-opacity="1" stroke="#ffffff" stroke-miterlimit="50" stroke-width="4" clip-path="url(&quot;#SvgjsClipPath1027&quot;)" transform="matrix(1,0,0,1,-220,-868)"></path><path id="SvgjsPath1028" d="M231.995 884.77V894.232H235.173V884.77ZM234.884 880.679C234.563 880.37 234.136 880.216 233.60299999999998 880.216C233.07 880.216 232.63899999999998 880.37 232.308 880.679C231.977 880.9879999999999 231.81199999999998 881.3779999999999 231.81199999999998 881.8489999999999C231.81199999999998 882.313 231.97299999999998 882.7019999999999 232.29399999999998 883.0139999999999C232.61499999999998 883.3259999999999 233.03799999999998 883.4819999999999 233.56499999999997 883.4819999999999H233.58399999999997C234.12299999999996 883.4819999999999 234.55799999999996 883.3259999999999 234.88899999999998 883.0139999999999C235.219 882.7019999999999 235.38199999999998 882.3129999999999 235.37499999999997 881.8489999999999C235.36899999999997 881.3779999999999 235.20499999999998 880.9879999999999 234.88399999999996 880.679ZM246.603 888.809V894.232H243.435V889.172C243.435 888.503 243.305 887.98 243.04500000000002 887.601C242.78500000000003 887.223 242.37900000000002 887.033 241.82700000000003 887.033C241.42300000000003 887.033 241.08400000000003 887.143 240.81100000000004 887.363C240.53800000000004 887.5820000000001 240.33400000000003 887.854 240.19900000000004 888.1790000000001C240.12900000000005 888.3700000000001 240.09400000000005 888.6270000000001 240.09400000000005 888.9520000000001V894.2320000000001H236.92600000000004C236.93800000000005 891.6920000000001 236.94500000000005 889.633 236.94500000000005 888.0550000000001C236.94500000000005 886.4760000000001 236.94100000000006 885.5340000000001 236.93500000000006 885.229L236.92600000000007 884.7700000000001H240.09400000000008V886.1136100000001C240.21654000000007 885.9226900000001 240.34097000000008 885.7551000000001 240.46900000000008 885.6100000000001C240.60400000000007 885.4580000000001 240.78500000000008 885.2920000000001 241.0130000000001 885.1140000000001C241.2410000000001 884.9360000000001 241.5200000000001 884.7970000000001 241.85100000000008 884.6990000000002C242.18200000000007 884.6000000000001 242.5490000000001 884.5500000000002 242.9540000000001 884.5500000000002C244.0510000000001 884.5500000000002 244.93400000000008 884.9120000000001 245.6020000000001 885.6340000000001C246.2690000000001 886.3570000000001 246.6030000000001 887.4150000000001 246.6030000000001 888.8090000000001Z " fill="#ffffff" fill-opacity="1" transform="matrix(1,0,0,1,-220,-868)"></path></svg>