<svg id="SvgjsSvg1011" xmlns="http://www.w3.org/2000/svg" version="1.1" xmlns:xlink="http://www.w3.org/1999/xlink" xmlns:svgjs="http://svgjs.com/svgjs" width="39" height="38" viewBox="0 0 39 38"><title>fa-twitter</title><desc>Created with Avocode.</desc><defs id="SvgjsDefs1012"><clipPath id="SvgjsClipPath1016"><path id="SvgjsPath1015" d="M127.13 868C137.623 868 146.13 876.507 146.13 887C146.13 897.493 137.623 906 127.13 906C116.637 906 108.13 897.493 108.13 887C108.13 876.507 116.637 868 127.13 868Z " fill="#ffffff"></path></clipPath></defs><path id="SvgjsPath1013" d="M133.694 883.176C134.368 882.7750000000001 134.82399999999998 882.2090000000001 135.06199999999998 881.476C134.445 881.839 133.78699999999998 882.087 133.088 882.221C132.471 881.572 131.714 881.247 130.815 881.247C129.95499999999998 881.247 129.221 881.548 128.615 882.15C128.008 882.751 127.70500000000001 883.478 127.70500000000001 884.331C127.70500000000001 884.5600000000001 127.73000000000002 884.796 127.78200000000001 885.037C126.51100000000001 884.974 125.31800000000001 884.657 124.20400000000001 884.087C123.09 883.518 122.14500000000001 882.759 121.36800000000001 881.811C121.08600000000001 882.288 120.94500000000001 882.807 120.94500000000001 883.3670000000001C120.94500000000001 883.8950000000001 121.07000000000001 884.3850000000001 121.32000000000001 884.8370000000001C121.57100000000001 885.2890000000001 121.908 885.6550000000001 122.331 885.9350000000001C121.831 885.916 121.36200000000001 885.7860000000001 120.925 885.5440000000001V885.5820000000001C120.925 886.3270000000001 121.161 886.9810000000001 121.633 887.5440000000001C122.10499999999999 888.1070000000001 122.69999999999999 888.4620000000001 123.42 888.6080000000001C123.15 888.6790000000001 122.877 888.7130000000001 122.601 888.7130000000001C122.42099999999999 888.7130000000001 122.225 888.6980000000001 122.014 888.6650000000001C122.21199999999999 889.2830000000001 122.57799999999999 889.791 123.11099999999999 890.1880000000001C123.64399999999999 890.5870000000001 124.24799999999999 890.7920000000001 124.922 890.8040000000001C123.792 891.6830000000001 122.505 892.1220000000001 121.06 892.1220000000001C120.784 892.1220000000001 120.534 892.109 120.309 892.0840000000001C121.75399999999999 893.0070000000001 123.346 893.4680000000001 125.086 893.4680000000001C126.19 893.4680000000001 127.226 893.2950000000001 128.196 892.9480000000001C129.165 892.6010000000001 129.993 892.1360000000001 130.68 891.5540000000001C131.36700000000002 890.9720000000001 131.959 890.3020000000001 132.457 889.5440000000001C132.954 888.7870000000001 133.325 887.9960000000001 133.569 887.1720000000001C133.813 886.3470000000001 133.935 885.5210000000002 133.935 884.6940000000002C133.935 884.5160000000002 133.93200000000002 884.3820000000002 133.925 884.2930000000002C134.53500000000003 883.8540000000003 135.055 883.3220000000002 135.485 882.6990000000002C134.888 882.9530000000002 134.29100000000003 883.1130000000002 133.69400000000002 883.1760000000002Z " fill="#ffffff" fill-opacity="1" transform="matrix(1,0,0,1,-108,-868)"></path><path id="SvgjsPath1014" d="M127.13 868C137.623 868 146.13 876.507 146.13 887C146.13 897.493 137.623 906 127.13 906C116.637 906 108.13 897.493 108.13 887C108.13 876.507 116.637 868 127.13 868Z " fill-opacity="0" fill="#ffffff" stroke-dasharray="0" stroke-linejoin="miter" stroke-linecap="butt" stroke-opacity="1" stroke="#ffffff" stroke-miterlimit="50" stroke-width="4" clip-path="url(&quot;#SvgjsClipPath1016&quot;)" transform="matrix(1,0,0,1,-108,-868)"></path></svg>