<svg id="SvgjsSvg1000" xmlns="http://www.w3.org/2000/svg" version="1.1" xmlns:xlink="http://www.w3.org/1999/xlink" xmlns:svgjs="http://svgjs.com/svgjs" width="39" height="38" viewBox="0 0 39 38"><title>fa-vk</title><desc>Created with Avocode.</desc><defs id="SvgjsDefs1001"><clipPath id="SvgjsClipPath1010"><path id="SvgjsPath1009" d="M70.9999 868C81.4934 868 90 876.507 90 887C90 897.493 81.4934 906 70.9999 906C60.506499999999996 906 51.9999 897.493 51.9999 887C51.9999 876.507 60.506499999999996 868 70.9999 868Z " fill="#ffffff"></path></clipPath></defs><path id="SvgjsPath1007" d="M80.0503 883.035C80.01169999999999 882.977 79.9121 882.925 79.7517 882.877C79.5911 882.829 79.3858 882.8209999999999 79.1354 882.853L76.3621 882.872C76.2979 882.866 76.2337 882.867 76.1696 882.877C76.1052 882.887 76.06360000000001 882.896 76.0444 882.906C76.02499999999999 882.915 76.0089 882.923 75.9962 882.93L75.9576 882.958C75.9255 882.977 75.8902 883.011 75.8518 883.059C75.8132 883.106 75.7811 883.1619999999999 75.7555 883.225C75.4536 883.996 75.1103 884.712 74.725 885.374C74.4874 885.768 74.2692 886.111 74.07029999999999 886.4C73.87129999999999 886.6899999999999 73.70429999999999 886.903 73.5696 887.04C73.43469999999999 887.1769999999999 73.3128 887.286 73.2036 887.3689999999999C73.0944 887.4519999999999 73.011 887.487 72.9533 887.4739999999999C72.8954 887.4609999999999 72.8408 887.449 72.7896 887.4359999999999C72.69949999999999 887.3789999999999 72.62729999999999 887.3009999999999 72.57289999999999 887.2019999999999C72.5182 887.1039999999999 72.4814 886.9789999999999 72.4622 886.8299999999999C72.4429 886.68 72.43159999999999 886.5509999999999 72.4284 886.443C72.4251 886.335 72.4268 886.182 72.4332 885.985C72.4395 885.788 72.4429 885.654 72.4429 885.5840000000001C72.4429 885.3420000000001 72.4477 885.0790000000001 72.45739999999999 884.796C72.467 884.513 72.47489999999999 884.288 72.4814 884.123C72.48769999999999 883.9580000000001 72.49109999999999 883.783 72.49109999999999 883.5980000000001C72.49109999999999 883.4130000000001 72.47979999999998 883.268 72.45739999999999 883.1630000000001C72.4348 883.0590000000001 72.401 882.9570000000001 72.35619999999999 882.8580000000002C72.31129999999999 882.7590000000001 72.24539999999999 882.6830000000002 72.15889999999999 882.6290000000001C72.07209999999999 882.5750000000002 71.96459999999999 882.5320000000002 71.83619999999999 882.5000000000001C71.49579999999999 882.4230000000001 71.06249999999999 882.3820000000001 70.5362 882.3760000000001C69.34219999999999 882.363 68.5749 882.4390000000001 68.23479999999999 882.6050000000001C68.09989999999999 882.6750000000002 67.978 882.7710000000002 67.8688 882.8920000000002C67.7533 883.0320000000002 67.73719999999999 883.1080000000002 67.82069999999999 883.1200000000001C68.20589999999999 883.1780000000001 68.47869999999999 883.3150000000002 68.63929999999999 883.5310000000001L68.69689999999999 883.6460000000001C68.74189999999999 883.7280000000001 68.78679999999999 883.8750000000001 68.83189999999999 884.085C68.8766 884.2950000000001 68.90559999999999 884.527 68.9185 884.782C68.95049999999999 885.2470000000001 68.95049999999999 885.644 68.9185 885.975C68.88629999999999 886.306 68.85589999999999 886.5640000000001 68.8271 886.749C68.798 886.933 68.7547 887.083 68.6969 887.197C68.6393 887.312 68.6007 887.382 68.5815 887.407C68.5622 887.433 68.546 887.4490000000001 68.53330000000001 887.455C68.4497 887.4870000000001 68.36310000000002 887.503 68.2733 887.503C68.1833 887.503 68.07430000000001 887.4580000000001 67.94590000000001 887.369C67.8173 887.28 67.6842 887.158 67.5463 887.0020000000001C67.40820000000001 886.8460000000001 67.2526 886.628 67.0792 886.3470000000001C66.9059 886.0680000000001 66.726 885.7370000000001 66.54 885.3550000000001L66.3858 885.0780000000001C66.28960000000001 884.9000000000001 66.158 884.6400000000001 65.9911 884.3000000000001C65.824 883.9590000000001 65.6765 883.6300000000001 65.5481 883.312C65.4967 883.178 65.4196 883.076 65.3169 883.006L65.2689 882.977C65.2367 882.952 65.1853 882.925 65.1148 882.896C65.0441 882.867 64.9704 882.847 64.8934 882.834L62.2548 882.853C61.985200000000006 882.853 61.802200000000006 882.914 61.706 883.035L61.6674 883.092C61.6482 883.1229999999999 61.638600000000004 883.175 61.638600000000004 883.244C61.638600000000004 883.315 61.6578 883.4010000000001 61.696200000000005 883.5020000000001C62.081500000000005 884.4000000000001 62.5003 885.2660000000001 62.95290000000001 886.099C63.4055 886.933 63.79860000000001 887.605 64.13260000000001 888.114C64.4663 888.623 64.80660000000002 889.104 65.15330000000002 889.556C65.49990000000001 890.008 65.72940000000001 890.297 65.84180000000002 890.4240000000001C65.95400000000002 890.5520000000001 66.04240000000001 890.647 66.10660000000001 890.7110000000001L66.34740000000001 890.9400000000002C66.50150000000001 891.0930000000002 66.7278 891.2760000000002 67.0262 891.4890000000001C67.3248 891.7030000000002 67.6553 891.9120000000001 68.0181 892.1190000000001C68.3807 892.3260000000001 68.80290000000001 892.4950000000001 69.28450000000001 892.6250000000001C69.76580000000001 892.7560000000001 70.2343 892.8080000000001 70.69030000000001 892.7830000000001H71.7977C72.0224 892.7630000000001 72.19250000000001 892.6940000000001 72.30810000000001 892.5730000000001L72.34660000000001 892.5250000000001C72.3722 892.4870000000001 72.39620000000001 892.4280000000001 72.4188 892.3480000000001C72.44120000000001 892.2690000000001 72.4525 892.181 72.4525 892.0860000000001C72.446 891.8120000000001 72.467 891.5650000000002 72.5151 891.3460000000001C72.5633 891.1260000000001 72.6178 890.9610000000001 72.67880000000001 890.8490000000002C72.73980000000002 890.7380000000002 72.80890000000001 890.6440000000001 72.8858 890.5680000000002C72.9628 890.4910000000002 73.0173 890.4450000000002 73.0496 890.4290000000002C73.08149999999999 890.4130000000002 73.1074 890.4020000000002 73.1266 890.3950000000002C73.28059999999999 890.3450000000003 73.4619 890.3940000000002 73.6707 890.5440000000002C73.8792 890.6940000000002 74.07509999999999 890.8780000000002 74.2581 891.0970000000002C74.4411 891.3170000000002 74.6608 891.5640000000002 74.9177 891.8380000000002C75.17439999999999 892.1110000000002 75.3992 892.3150000000002 75.59179999999999 892.4480000000002L75.78439999999999 892.5630000000002C75.91269999999999 892.6390000000002 76.0795 892.7090000000002 76.28509999999999 892.7730000000003C76.49049999999998 892.8370000000002 76.67029999999998 892.8530000000003 76.82429999999998 892.8210000000003L79.28949999999998 892.7830000000002C79.53329999999997 892.7830000000002 79.72289999999998 892.7430000000003 79.85769999999998 892.6630000000002C79.99249999999998 892.5840000000003 80.07269999999998 892.4960000000002 80.09829999999998 892.4010000000003C80.12399999999998 892.3050000000003 80.12559999999998 892.1970000000003 80.10309999999998 892.0760000000002C80.08059999999999 891.9550000000003 80.05819999999999 891.8710000000002 80.03589999999998 891.8230000000002C80.01319999999998 891.7750000000002 79.99249999999998 891.7360000000002 79.97309999999999 891.7040000000002C79.65209999999999 891.1310000000002 79.0392 890.4280000000002 78.13399999999999 889.5940000000002L78.11469999999998 889.5740000000002L78.10509999999998 889.5650000000002L78.09549999999997 889.5560000000002H78.08589999999997C77.67479999999996 889.1670000000001 77.41479999999997 888.9060000000002 77.30579999999996 888.7730000000001C77.10659999999996 888.5180000000001 77.06179999999996 888.2600000000001 77.17089999999996 887.9990000000001C77.24799999999996 887.8020000000001 77.53689999999996 887.3850000000001 78.03769999999996 886.7490000000001C78.30079999999995 886.4110000000002 78.50939999999996 886.1410000000002 78.66359999999996 885.9370000000001C79.77409999999996 884.4730000000001 80.25559999999996 883.5370000000001 80.10809999999996 883.1300000000001Z " fill="#00a39e" fill-opacity="1" transform="matrix(1,0,0,1,-51,-868)"></path><path id="SvgjsPath1008" d="M70.9999 868C81.4934 868 90 876.507 90 887C90 897.493 81.4934 906 70.9999 906C60.506499999999996 906 51.9999 897.493 51.9999 887C51.9999 876.507 60.506499999999996 868 70.9999 868Z " fill-opacity="0" fill="#ffffff" stroke-dasharray="0" stroke-linejoin="miter" stroke-linecap="butt" stroke-opacity="1" stroke="#00a39e" stroke-miterlimit="50" stroke-width="4" clip-path="url(&quot;#SvgjsClipPath1010&quot;)" transform="matrix(1,0,0,1,-51,-868)"></path></svg>